<svg xmlns="http://www.w3.org/2000/svg" width="30.638" height="44.452" viewBox="0 0 30.638 44.452">
  <path id="marigold" d="M100.48,15.32a.651.651,0,0,0-.651-.651h-.961a1.833,1.833,0,0,0-1.038-1.063,1.833,1.833,0,0,0-.4-1.424l.48-.831a.651.651,0,0,0-1.128-.651l-.478.828a1.834,1.834,0,0,0-1.441.368,1.833,1.833,0,0,0-1.434-.369l-.477-.827a.651.651,0,0,0-1.128.651l.477.826a1.834,1.834,0,0,0-.4,1.429,1.834,1.834,0,0,0-1.038,1.063h-.954a.651.651,0,0,0,0,1.3h.956A1.834,1.834,0,0,0,91.9,17.027a1.833,1.833,0,0,0,.4,1.432l-.479.83a.651.651,0,0,0,1.128.651l.481-.833a1.834,1.834,0,0,0,1.431-.37,1.828,1.828,0,0,0,1.437.368l.482.834a.651.651,0,0,0,1.128-.651l-.482-.835a1.834,1.834,0,0,0,.4-1.427,1.834,1.834,0,0,0,1.036-1.055h.964a.651.651,0,0,0,.651-.651Zm-3.139.5a1.288,1.288,0,0,0-.8,1.388.541.541,0,0,1-.871.5,1.289,1.289,0,0,0-1.6,0,.541.541,0,0,1-.871-.5,1.289,1.289,0,0,0-.8-1.388.521.521,0,0,1-.337-.437.64.64,0,0,0,0-.129.521.521,0,0,1,.337-.44,1.288,1.288,0,0,0,.8-1.388.541.541,0,0,1,.871-.5,1.289,1.289,0,0,0,1.6,0h0a.541.541,0,0,1,.871.5,1.289,1.289,0,0,0,.8,1.388.541.541,0,0,1,0,1.006Zm10.951-4.1a4.355,4.355,0,0,0-3.6-6.23A4.357,4.357,0,0,0,98.467,1.9a4.353,4.353,0,0,0-7.192,0,4.357,4.357,0,0,0-6.229,3.595,4.369,4.369,0,0,0-1.134.24.651.651,0,1,0,.437,1.227,3.052,3.052,0,0,1,2.554.232,10.23,10.23,0,0,1,1.75,1.4,3.684,3.684,0,0,0-.357,2.23.988.988,0,0,1-.615,1.064A3.684,3.684,0,0,0,85.932,13.3a10.236,10.236,0,0,1-2.084-.818,3.072,3.072,0,0,1-1.318-3.757.651.651,0,1,0-1.212-.476,4.358,4.358,0,0,0,.138,3.469,4.356,4.356,0,0,0-.007,7.2,4.358,4.358,0,0,0,3.6,6.231,4.359,4.359,0,0,0,6.229,3.595,4.394,4.394,0,0,0,.889.953V37.48l-3.756-3.756a.651.651,0,0,0-.921.921l4.677,4.677v2.422a2.707,2.707,0,0,0,4.8,1.722.651.651,0,0,0-1-.829,1.4,1.4,0,0,1-2.489-.893V30.408a4.338,4.338,0,0,0,2.809,0v9.568a.651.651,0,0,0,1.3,0V37.4l4.677-4.677a.651.651,0,0,0-.921-.921l-3.756,3.756V29.695a4.388,4.388,0,0,0,.889-.953,4.359,4.359,0,0,0,6.229-3.595,4.358,4.358,0,0,0,3.6-6.231,4.357,4.357,0,0,0,0-7.192Zm-4.163-4.932a3.055,3.055,0,0,1,1.765,5.692,10.234,10.234,0,0,1-2.084.818,3.685,3.685,0,0,0-1.749-1.419.988.988,0,0,1-.615-1.064,3.685,3.685,0,0,0-.357-2.23,10.234,10.234,0,0,1,1.75-1.4,3.045,3.045,0,0,1,1.243-.4Zm-5.095-3.72A3.052,3.052,0,0,1,103.4,5.589a4.37,4.37,0,0,0-1.208.476,10.991,10.991,0,0,0-1.9,1.488,3.9,3.9,0,0,0-1.4-.808,10.994,10.994,0,0,0,.339-2.389A4.342,4.342,0,0,0,99.034,3.072ZM94.871,1.3a3.058,3.058,0,0,1,3.055,3.055,10.235,10.235,0,0,1-.334,2.216,3.685,3.685,0,0,0-2.106.806.988.988,0,0,1-1.229,0,3.685,3.685,0,0,0-2.106-.806,10.235,10.235,0,0,1-.334-2.216A3.058,3.058,0,0,1,94.871,1.3ZM87.554,6.065a4.358,4.358,0,0,0-1.208-.473,3.052,3.052,0,0,1,4.362-2.52,4.342,4.342,0,0,0-.193,1.284,11,11,0,0,0,.339,2.389,3.9,3.9,0,0,0-1.4.808A10.987,10.987,0,0,0,87.554,6.065ZM82.18,17.838a3.052,3.052,0,0,1,0-5.038,4.291,4.291,0,0,0,1.012.812,10.988,10.988,0,0,0,2.236.9,3.894,3.894,0,0,0,0,1.618,10.985,10.985,0,0,0-2.234.9,4.369,4.369,0,0,0-1.017.808Zm2.4,5.915a3.055,3.055,0,0,1-.737-5.6,10.221,10.221,0,0,1,2.081-.817,3.684,3.684,0,0,0,1.753,1.425.988.988,0,0,1,.615,1.064,3.685,3.685,0,0,0,.354,2.225A10.223,10.223,0,0,1,86.9,23.448,3.042,3.042,0,0,1,84.585,23.753Zm6.123,3.816a3.052,3.052,0,0,1-4.362-2.519,4.368,4.368,0,0,0,1.208-.474,10.97,10.97,0,0,0,1.9-1.484,3.9,3.9,0,0,0,1.4.81,10.978,10.978,0,0,0-.337,2.382A4.345,4.345,0,0,0,90.707,27.569Zm4.164,1.771a3.058,3.058,0,0,1-3.055-3.055,10.213,10.213,0,0,1,.332-2.209,3.685,3.685,0,0,0,2.108-.806.988.988,0,0,1,1.229,0,3.685,3.685,0,0,0,2.108.806,10.212,10.212,0,0,1,.332,2.208A3.058,3.058,0,0,1,94.871,29.339Zm1.422-7.091a2.286,2.286,0,0,0-2.844,0,2.4,2.4,0,0,1-3.864-2.231,2.286,2.286,0,0,0-1.422-2.463,2.321,2.321,0,0,1-1.29-1.211.643.643,0,0,0-.038-.085,2.4,2.4,0,0,1,1.329-3.167,2.286,2.286,0,0,0,1.422-2.463A2.4,2.4,0,0,1,93.449,8.4a2.286,2.286,0,0,0,2.844,0h0a2.4,2.4,0,0,1,3.864,2.231,2.286,2.286,0,0,0,1.422,2.463,2.4,2.4,0,0,1,0,4.462,2.286,2.286,0,0,0-1.422,2.463A2.4,2.4,0,0,1,96.293,22.249Zm2.742,5.32a4.342,4.342,0,0,0,.193-1.284A10.978,10.978,0,0,0,98.89,23.9a3.874,3.874,0,0,0,1.4-.809,10.982,10.982,0,0,0,1.9,1.484,4.365,4.365,0,0,0,1.208.474A3.052,3.052,0,0,1,99.034,27.569Zm5.052-3.723a3.045,3.045,0,0,1-1.248-.4,10.222,10.222,0,0,1-1.748-1.393,3.685,3.685,0,0,0,.354-2.225.988.988,0,0,1,.615-1.064,3.684,3.684,0,0,0,1.753-1.425,10.223,10.223,0,0,1,2.081.817,3.055,3.055,0,0,1-1.807,5.688Zm3.475-6.008a4.371,4.371,0,0,0-1.017-.808,10.986,10.986,0,0,0-2.235-.9,3.9,3.9,0,0,0,0-1.618,10.988,10.988,0,0,0,2.236-.9,4.343,4.343,0,0,0,1.015-.809A3.052,3.052,0,0,1,107.561,17.838Z" transform="translate(-79.551 0.001)" fill="#bd6f51"/>
</svg>
