<svg xmlns="http://www.w3.org/2000/svg" width="31.639" height="45.714" viewBox="0 0 31.639 45.714">
  <g id="outline" transform="translate(-17 -2.003)">
    <path id="Path_13951" data-name="Path 13951" d="M33.874,35.069V31.018a22.276,22.276,0,0,0,5.1-5.231,4.291,4.291,0,0,0,.738-2.12,4.243,4.243,0,0,0,2.136-.752,22.47,22.47,0,0,0,5.565-5.565,1.055,1.055,0,0,0,0-1.171,22.47,22.47,0,0,0-5.567-5.566,4.269,4.269,0,0,0-2.135-.758,4.282,4.282,0,0,0-.738-2.109A22.448,22.448,0,0,0,33.4,2.18a1.055,1.055,0,0,0-1.171,0,22.448,22.448,0,0,0-5.565,5.565,4.279,4.279,0,0,0-.738,2.109,4.284,4.284,0,0,0-2.137.76,22.47,22.47,0,0,0-5.565,5.565,1.055,1.055,0,0,0,0,1.171,22.47,22.47,0,0,0,5.567,5.566,4.241,4.241,0,0,0,2.134.751,4.291,4.291,0,0,0,.738,2.12,22.276,22.276,0,0,0,5.1,5.23v4.051a9.474,9.474,0,0,0-7.382-3.539H17v3.164a9.5,9.5,0,0,0,9.492,9.492h5.273v2.109H18.055A1.055,1.055,0,0,0,17,47.349c6.416.4,22.334.571,31.639,0a1.055,1.055,0,0,0-1.055-1.055H33.874V44.185h5.273a9.5,9.5,0,0,0,9.492-9.492V31.529H41.256a9.474,9.474,0,0,0-7.382,3.539Zm11.352-18.3a20.22,20.22,0,0,1-4.553,4.395,1.919,1.919,0,0,1-1.458.388,6.583,6.583,0,0,0-2.178-2.222V17.819h5.273V15.71H37.038V14.2a6.588,6.588,0,0,0,2.178-2.221,1.91,1.91,0,0,1,1.455.386A20.216,20.216,0,0,1,45.226,16.765ZM30.71,18.874V14.655h4.218v4.218ZM28.424,8.913a20.239,20.239,0,0,1,4.4-4.555,20.239,20.239,0,0,1,4.4,4.555,1.9,1.9,0,0,1,.361,1.582,4.1,4.1,0,0,1-1.864,2.051H33.874V7.273H31.765v5.273H29.927a4.1,4.1,0,0,1-1.864-2.053,1.9,1.9,0,0,1,.361-1.58Zm-8.011,7.852a20.22,20.22,0,0,1,4.553-4.395,1.92,1.92,0,0,1,1.457-.388A6.583,6.583,0,0,0,28.6,14.2V15.71H23.328v2.109H28.6v1.5a6.583,6.583,0,0,0-2.178,2.222,1.916,1.916,0,0,1-1.455-.387,20.216,20.216,0,0,1-4.555-4.392Zm8.015,7.852a1.9,1.9,0,0,1-.361-1.582,4.1,4.1,0,0,1,1.859-2.051h1.838v5.273h2.109V20.983h1.838a4.1,4.1,0,0,1,1.864,2.053,1.9,1.9,0,0,1-.361,1.582,20.239,20.239,0,0,1-4.4,4.553,20.239,20.239,0,0,1-4.4-4.555ZM19.109,34.693V33.639h5.273a7.391,7.391,0,0,1,7.382,7.382v.139l-7.852-5.235L22.742,37.68l6.6,4.4H26.492A7.391,7.391,0,0,1,19.109,34.693Zm27.42,0a7.391,7.391,0,0,1-7.382,7.382H36.3l6.593-4.4-1.171-1.755L33.874,41.16v-.139a7.391,7.391,0,0,1,7.382-7.382h5.273Z" fill="#bd6f51"/>
  </g>
</svg>
