<svg xmlns="http://www.w3.org/2000/svg" width="31.638" height="35.911" viewBox="0 0 31.638 35.911">
  <g id="Group_1791" data-name="Group 1791" transform="translate(-1334 -2524)">
    <g id="save-money" transform="translate(1334 2524)">
      <path id="Path_13944" data-name="Path 13944" d="M188.6,155.775a.561.561,0,0,0-.2-.007,1.339,1.339,0,0,1-1.184-1.328.589.589,0,1,0-1.178,0,2.52,2.52,0,0,0,1.853,2.426v.589a.589.589,0,1,0,1.178,0V156.9a2.515,2.515,0,0,0-.515-4.977,1.337,1.337,0,1,1,1.337-1.337.589.589,0,0,0,1.178,0,2.52,2.52,0,0,0-2-2.462v-.536a.589.589,0,1,0-1.178,0v.572a2.515,2.515,0,0,0,.663,4.942,1.337,1.337,0,0,1,.049,2.672Zm0,0" transform="translate(-172.367 -136.177)" fill="#bd6f51"/>
      <path id="Path_13945" data-name="Path 13945" d="M104.2,115.034a8.542,8.542,0,1,0,8.542-8.542A8.542,8.542,0,0,0,104.2,115.034Zm8.542-7.364a7.364,7.364,0,1,1-7.364,7.364A7.363,7.363,0,0,1,112.737,107.67Zm0,0" transform="translate(-96.55 -98.651)" fill="#bd6f51"/>
      <path id="Path_13946" data-name="Path 13946" d="M27.992,328.7l-4.614,2.18a3.758,3.758,0,0,0-3.2-1.977l-4.26-.117a4.5,4.5,0,0,1-1.936-.5l-.433-.225a7.645,7.645,0,0,0-7.081.007l.027-.982a.589.589,0,0,0-.573-.605l-4.671-.129a.589.589,0,0,0-.6.573L.36,337.179a.589.589,0,0,0,.573.605l4.671.129H5.62a.589.589,0,0,0,.589-.573l.014-.49,1.213-.65a2.081,2.081,0,0,1,1.553-.17l7.246,2.034.038.009a7.755,7.755,0,0,0,1.593.164,7.859,7.859,0,0,0,3.283-.716.549.549,0,0,0,.073-.04l10.506-6.8a.589.589,0,0,0,.193-.785,2.976,2.976,0,0,0-3.929-1.2Zm-26.438,7.92.25-9.073,3.493.1-.25,9.073Zm19.065-.154a6.678,6.678,0,0,1-4.084.456L9.308,334.9a3.257,3.257,0,0,0-2.428.265l-.62.332.166-6.032A6.475,6.475,0,0,1,13,329.11l.433.225a5.689,5.689,0,0,0,2.445.632l4.26.117a2.584,2.584,0,0,1,2.455,2.059l-6.345-.175a.589.589,0,0,0-.032,1.178l7,.193h.016a.589.589,0,0,0,.588-.573A3.738,3.738,0,0,0,23.77,332l4.733-2.236.014-.007a1.8,1.8,0,0,1,2.035.285Zm0,0" transform="translate(-0.36 -302.326)" fill="#bd6f51"/>
      <path id="Path_13947" data-name="Path 13947" d="M213.381,6.185V.589a.589.589,0,0,0-1.178,0v5.6a.589.589,0,0,0,1.178,0Zm0,0" transform="translate(-196.605)" fill="#bd6f51"/>
      <path id="Path_13948" data-name="Path 13948" d="M273.381,43.24V40.589a.589.589,0,1,0-1.178,0V43.24a.589.589,0,1,0,1.178,0Zm0,0" transform="translate(-252.187 -37.055)" fill="#bd6f51"/>
      <path id="Path_13949" data-name="Path 13949" d="M153.381,43.24V40.589a.589.589,0,1,0-1.178,0V43.24a.589.589,0,1,0,1.178,0Zm0,0" transform="translate(-141.023 -37.055)" fill="#bd6f51"/>
    </g>
  </g>
</svg>
