<svg xmlns="http://www.w3.org/2000/svg" width="31.099" height="41.902" viewBox="0 0 31.099 41.902">
  <g id="flower" transform="translate(-66)">
    <path id="Path_13943" data-name="Path 13943" d="M66,41.084a.818.818,0,0,0,.818.818H96.281a.818.818,0,0,0,0-1.637H88.552q.482-.239.949-.51a.818.818,0,0,0-.825-1.414,14.155,14.155,0,0,1-6.1,1.887A14.205,14.205,0,0,1,95.252,29.664a14.08,14.08,0,0,1-1.637,3.852.818.818,0,0,0,1.395.857,15.8,15.8,0,0,0,2.073-5.4.818.818,0,0,0-.8-.978,15.789,15.789,0,0,0-13.913,8.326V26.158c2.661-.2,4.344-1.382,4.79-3.352,2.475.759,4.438-.923,5.732-3.165,1.3-2.259,1.761-4.794-.128-6.549,1.9-1.768,1.42-4.308.128-6.546s-3.254-3.932-5.732-3.166C86.666,1.217,84.684,0,81.55,0s-5.118,1.218-5.608,3.383c-2.479-.76-4.442.93-5.732,3.164-1.3,2.253-1.767,4.8.125,6.548-1.895,1.764-1.419,4.3-.125,6.546s3.267,3.923,5.736,3.163c.453,1.969,2.135,3.155,4.785,3.353V36.316a15.79,15.79,0,0,0-13.913-8.326.818.818,0,0,0-.8.978,16.14,16.14,0,0,0,5.521,9.355,15.753,15.753,0,0,0,3.017,1.943H66.818A.818.818,0,0,0,66,41.084Zm25.472-22.26c-2.276,3.943-4.491,2.067-4.595,2.072A13.281,13.281,0,0,1,82.7,16.16a3.26,3.26,0,0,0,2.08-3.606,13.26,13.26,0,0,1,6.2,1.257l.012.007C92.965,14.874,92.594,16.88,91.472,18.823ZM81.55,11.458a1.636,1.636,0,0,1,.033,3.272l-.033,0-.034,0a1.636,1.636,0,0,1,.034-3.272Zm9.922-4.092c1,1.731,1.492,3.626-.146,4.79A15.332,15.332,0,0,0,85.35,10.9a15.32,15.32,0,0,0,1.9-5.806c1.806-.838,3.216.533,4.22,2.271ZM81.55,1.637c2.715,0,4.092.964,4.092,2.864a13.149,13.149,0,0,1-2.011,6.07,3.261,3.261,0,0,0-4.161,0A13.151,13.151,0,0,1,77.458,4.5c0-1.9,1.377-2.864,4.092-2.864ZM71.627,7.365c1-1.73,2.4-3.109,4.22-2.27a15.331,15.331,0,0,0,1.9,5.8,15.349,15.349,0,0,0-5.978,1.256c-1.632-1.147-1.145-3.056-.144-4.791Zm0,11.458c-2.285-3.958.418-4.86.5-5.013a13.267,13.267,0,0,1,6.2-1.256,3.259,3.259,0,0,0,2.08,3.605,13.282,13.282,0,0,1-4.181,4.735C76.087,20.889,73.927,22.806,71.627,18.823Zm5.849,3.206a15.353,15.353,0,0,0,4.073-4.548,15.349,15.349,0,0,0,4.076,4.55c-.161,1.673-1.53,2.52-4.076,2.52S77.647,23.7,77.476,22.03Zm-9.63,7.634A14.2,14.2,0,0,1,80.521,40.228,14.205,14.205,0,0,1,67.847,29.664Z" fill="#bd6f51"/>
    <circle id="Ellipse_119" data-name="Ellipse 119" cx="0.5" cy="0.5" r="0.5" transform="translate(91.461 36)" fill="#bd6f51"/>
  </g>
</svg>
