<svg id="Group_6" data-name="Group 6" xmlns="http://www.w3.org/2000/svg" width="56.238" height="44.991" viewBox="0 0 56.238 44.991">
  <path id="Path_4877" data-name="Path 4877" d="M54.862,56.2a4.512,4.512,0,0,0-3.309-1.376H4.687A4.514,4.514,0,0,0,1.376,56.2,4.512,4.512,0,0,0,0,59.507V95.125a4.512,4.512,0,0,0,1.376,3.31,4.514,4.514,0,0,0,3.31,1.377H51.553a4.7,4.7,0,0,0,4.686-4.687V59.507A4.513,4.513,0,0,0,54.862,56.2ZM52.489,95.125a.948.948,0,0,1-.937.937H4.687a.95.95,0,0,1-.937-.937V77.316h48.74V95.125Zm0-29.057H3.749V59.507a.95.95,0,0,1,.937-.937H51.552a.949.949,0,0,1,.937.937v6.561Z" transform="translate(0 -54.821)" fill="#fff"/>
  <rect id="Rectangle_22" data-name="Rectangle 22" width="7.498" height="3.75" transform="translate(7.499 33.743)" fill="#fff"/>
  <rect id="Rectangle_23" data-name="Rectangle 23" width="11.248" height="3.75" transform="translate(18.747 33.743)" fill="#fff"/>
</svg>
