<svg xmlns="http://www.w3.org/2000/svg" width="47.785" height="49.246" viewBox="0 0 47.785 49.246">
  <path id="snowflake" d="M47.221,29.56a1.133,1.133,0,0,0-.923-.095l-6.812,2.262-4.152-2.4,4.7-1.656a1.129,1.129,0,0,0,.605-.5l.045-.078a1.133,1.133,0,0,0-1.338-1.641l-6.812,2.262L28.821,25.57V23.675l3.715-2.145,6.812,2.262a1.133,1.133,0,0,0,1.338-1.641l-.044-.079a1.138,1.138,0,0,0-.605-.5l-4.7-1.656,4.152-2.4L46.3,19.778a1.133,1.133,0,0,0,1.338-1.641l-.045-.078a1.135,1.135,0,0,0-.6-.5l-4.7-1.656,2.336-1.349a1.641,1.641,0,1,0-1.641-2.843l-2.336,1.349.917-4.9a1.133,1.133,0,0,0-.132-.775L41.381,7.3a1.133,1.133,0,0,0-2.09.338l-1.448,7.03-4.152,2.4.918-4.9a1.134,1.134,0,0,0-.132-.775l-.045-.078a1.133,1.133,0,0,0-2.091.338l-1.448,7.03-2.663,1.537-2.693-1.345V15.594L30.9,10.826a1.133,1.133,0,0,0-.753-1.98h-.089a1.135,1.135,0,0,0-.737.273l-3.786,3.245V7.57L30.9,2.8A1.133,1.133,0,0,0,30.15.821h-.089a1.135,1.135,0,0,0-.737.273L25.538,4.339v-2.7a1.641,1.641,0,0,0-3.283,0v2.7L18.469,1.094a1.135,1.135,0,0,0-.737-.273h-.09A1.133,1.133,0,0,0,16.89,2.8L22.255,7.57v4.794L18.469,9.119a1.135,1.135,0,0,0-.737-.273h-.09a1.133,1.133,0,0,0-.753,1.98l5.365,4.768v3.283l-2.694,1.347L16.9,18.687l-1.448-7.03a1.133,1.133,0,0,0-2.091-.338l-.045.078a1.13,1.13,0,0,0-.132.775l.918,4.9-4.152-2.4L8.5,7.644a1.133,1.133,0,0,0-2.09-.338l-.045.078a1.128,1.128,0,0,0-.132.775l.917,4.9L4.815,11.71a1.641,1.641,0,1,0-1.641,2.843L5.509,15.9l-4.7,1.656a1.13,1.13,0,0,0-.6.5l-.045.078A1.133,1.133,0,0,0,1.494,19.78l6.812-2.262,4.152,2.4-4.7,1.656a1.129,1.129,0,0,0-.605.5l-.045.078a1.133,1.133,0,0,0,1.338,1.641l6.812-2.262,3.717,2.144V25.57l-3.715,2.145L8.445,25.453a1.133,1.133,0,0,0-1.338,1.641l.045.078a1.138,1.138,0,0,0,.605.5l4.7,1.656-4.152,2.4L1.5,29.466A1.133,1.133,0,0,0,.158,31.108l.045.078a1.135,1.135,0,0,0,.6.5l4.7,1.656L3.175,34.693a1.641,1.641,0,1,0,1.641,2.843l2.336-1.349-.917,4.9a1.132,1.132,0,0,0,.132.775l.045.078A1.133,1.133,0,0,0,8.5,41.6l1.448-7.03,4.152-2.4-.918,4.9a1.134,1.134,0,0,0,.132.775l.045.078a1.133,1.133,0,0,0,2.091-.338l1.448-7.03,2.663-1.537,2.692,1.345V33.65L16.89,38.419a1.133,1.133,0,0,0,.753,1.98h.089a1.135,1.135,0,0,0,.737-.273l3.786-3.245v4.794L16.89,46.444a1.133,1.133,0,0,0,.753,1.98h.089a1.135,1.135,0,0,0,.737-.273l3.786-3.244v2.7a1.641,1.641,0,0,0,3.283,0v-2.7l3.785,3.244a1.135,1.135,0,0,0,.737.273h.089a1.133,1.133,0,0,0,.753-1.98l-5.364-4.769V36.882l3.785,3.245a1.135,1.135,0,0,0,.737.273h.089a1.133,1.133,0,0,0,.753-1.98L25.538,33.65V30.367l2.693-1.347,2.663,1.537,1.448,7.03a1.133,1.133,0,0,0,2.091.338l.045-.078a1.13,1.13,0,0,0,.132-.775l-.918-4.9,4.152,2.4,1.448,7.03a1.133,1.133,0,0,0,2.09.338l.045-.078a1.131,1.131,0,0,0,.132-.775l-.918-4.9,2.336,1.349a1.641,1.641,0,1,0,1.641-2.843l-2.336-1.349,4.7-1.656a1.13,1.13,0,0,0,.6-.5l.045-.078A1.131,1.131,0,0,0,47.221,29.56Zm-21.683-3.3-1.641.821-1.641-.821V22.981L23.9,22.16l1.641.821Zm0,0" transform="translate(-0.004)" fill="#fff"/>
</svg>
