<svg id="support" xmlns="http://www.w3.org/2000/svg" width="43.365" height="41.554" viewBox="0 0 43.365 41.554">
  <g id="Group_8" data-name="Group 8" transform="translate(0 0)">
    <path id="Path_4883" data-name="Path 4883" d="M27.883,37.634v-.755a7.868,7.868,0,0,0,.616-.558,11.22,11.22,0,0,0,2.84-6.254A5.516,5.516,0,0,0,34.9,27.949c1.19-1.683,1.3-4.1.3-7.14a.821.821,0,0,0-.328-.427l-.451-.3a11.129,11.129,0,0,0-2.659-7.493c-2.208-2.487-5.6-3.743-10.087-3.759-4.481,0-7.879,1.272-10.087,3.726a11.129,11.129,0,0,0-2.659,7.493l-.451.3a.821.821,0,0,0-.328.427c-.993,3.053-.886,5.458.3,7.14a5.532,5.532,0,0,0,3.562,2.142,11.228,11.228,0,0,0,2.848,6.262,8.007,8.007,0,0,0,.616.558v.755C12.338,38.241-.211,41.188,0,49.56a.821.821,0,0,0,.821.821H42.542a.821.821,0,0,0,.821-.821C43.576,41.188,31.027,38.241,27.883,37.634ZM11.526,28.228a3.562,3.562,0,0,1-1.74-1.272l.041.008c-.821-1.2-.895-3.012-.164-5.409l.6-.4a.821.821,0,0,0,.361-.763,9.7,9.7,0,0,1,2.232-6.755c1.855-2.1,4.834-3.152,8.823-3.168s6.968,1.067,8.856,3.168a9.7,9.7,0,0,1,2.232,6.755.821.821,0,0,0,.361.763l.6.4c.73,2.388.681,4.21-.164,5.409a3.579,3.579,0,0,1-1.748,1.272,5.466,5.466,0,0,0,1.338-4.1,3.841,3.841,0,0,0-1.321-2.3c-.353-8.207-6.106-9.127-8.585-9.127a10.346,10.346,0,0,0-1.568.115,10.332,10.332,0,0,0-1.568-.115c-2.462,0-8.207.9-8.585,9.127a3.841,3.841,0,0,0-1.338,2.29A5.458,5.458,0,0,0,11.526,28.228ZM30.2,21.5a16.908,16.908,0,0,1-9.808-2.462.821.821,0,0,0-1.067.107c-1.641,1.765-4.637,2.175-6.082,2.265.443-5.8,3.956-7.067,6.911-7.067a7.934,7.934,0,0,1,1.4.115.819.819,0,0,0,.328,0,7.973,7.973,0,0,1,1.4-.115c2.93,0,6.459,1.3,6.87,7.149ZM13.528,28.384l.033.008a.82.82,0,0,0-.205-.55c-1.124-1.289-1.641-2.462-1.5-3.431a2.175,2.175,0,0,1,.747-1.387c1.083,0,4.924-.205,7.387-2.331a18.507,18.507,0,0,0,9.11,2.462,10.823,10.823,0,0,0,1.691-.09,2.167,2.167,0,0,1,.739,1.346c.14.952-.378,2.142-1.5,3.431a.82.82,0,0,0-.205.55v.427L25.043,31.38a2.364,2.364,0,1,0,.739,1.715q.006-.111,0-.222l3.767-2.019a9.029,9.029,0,0,1-2.2,4.334,7.313,7.313,0,0,1-5.442,2.035H21.5A7.329,7.329,0,0,1,16.064,35.2C13.471,32.611,13.528,28.425,13.528,28.384ZM24.141,33.1a.73.73,0,1,1-.73-.73A.73.73,0,0,1,24.141,33.1ZM20.858,48.69H1.669c.648-6.164,10.67-8.741,13.8-9.406v1.469c0,1.863,2.265,3.283,5.384,3.521Zm-3.743-7.937V37.921a9.923,9.923,0,0,0,4.358.919h.41a9.923,9.923,0,0,0,4.358-.919v2.832c0,.78-1.781,1.9-4.563,1.9S17.115,41.533,17.115,40.753ZM22.5,48.714V44.266c3.119-.213,5.384-1.641,5.384-3.521V39.308c3.16.657,13.132,3.234,13.8,9.406Z" transform="translate(0 -8.826)" fill="#fff"/>
  </g>
</svg>
