<svg id="delivery-van" xmlns="http://www.w3.org/2000/svg" width="80.387" height="49.268" viewBox="0 0 80.387 49.268">
  <g id="Group_7" data-name="Group 7" transform="translate(0 0)">
    <path id="Path_4878" data-name="Path 4878" d="M98.442,256.572a7.062,7.062,0,1,0,7.064,7.062A7.061,7.061,0,0,0,98.442,256.572Zm0,10.133a3.07,3.07,0,1,1,3.071-3.07A3.07,3.07,0,0,1,98.442,266.7Z" transform="translate(-73.321 -221.429)" fill="#fff"/>
    <path id="Path_4879" data-name="Path 4879" d="M286.911,256.572a7.062,7.062,0,1,0,7.064,7.062A7.061,7.061,0,0,0,286.911,256.572Zm0,10.133a3.07,3.07,0,1,1,3.072-3.07A3.07,3.07,0,0,1,286.911,266.7Z" transform="translate(-224.546 -221.429)" fill="#fff"/>
    <path id="Path_4880" data-name="Path 4880" d="M51.9,135.071a1.8,1.8,0,0,1-1.8,1.8H25.274a1.8,1.8,0,0,1-1.8-1.8v-1.08a1.8,1.8,0,0,1,1.8-1.8H50.1a1.8,1.8,0,0,1,1.8,1.8Z" transform="translate(-18.836 -121.628)" fill="#fff"/>
    <path id="Path_4881" data-name="Path 4881" d="M112.807,102.713c-2.59-.673-4.072-1.1-5.089-3.06l-3.4-6.885A7.279,7.279,0,0,0,98.447,89.2H93.8a.6.6,0,0,1-.626-.617V82.806a3.731,3.731,0,0,0-3.961-4.07h-37.9c-3.858,0-5.689,1.832-5.689,4.07v3.619A1.044,1.044,0,0,0,46.658,87.5H67.869a3.6,3.6,0,0,1,3.6,3.6v1.08a3.6,3.6,0,0,1-3.6,3.6H46.658a.954.954,0,0,0-1.042,1.038v1.244c0,.99,1.356.989,1.356.989H61.251a3.6,3.6,0,0,1,3.6,3.6v1.08a3.6,3.6,0,0,1-3.6,3.6H47.2s-1.582-.029-1.582,1.23V117.3a4.082,4.082,0,0,0,4.07,4.07h2.248c.51,0,.585-.284.585-.427a9.2,9.2,0,0,1,18.408,0c0,.143-.041.427.349.427H89.418c.36,0,.345-.3.345-.427a9.2,9.2,0,0,1,18.408,0c0,.143,0,.427.222.427h4.574a4.033,4.033,0,0,0,4.022-4.022v-7.641C116.988,103.272,114.957,103.272,112.807,102.713Zm-7.653-.358H93.706a.536.536,0,0,1-.536-.46V92.358s-.027-.366.581-.366h3.266a6.476,6.476,0,0,1,5.224,3.177l3.026,6.126a4.8,4.8,0,0,0,.409.662C105.784,102.1,105.6,102.355,105.154,102.355Z" transform="translate(-36.602 -78.736)" fill="#fff"/>
    <path id="Path_4882" data-name="Path 4882" d="M26.449,193.507a1.8,1.8,0,0,1-1.8,1.8H1.8a1.8,1.8,0,0,1-1.8-1.8v-1.08a1.8,1.8,0,0,1,1.8-1.8h22.85a1.8,1.8,0,0,1,1.8,1.8Z" transform="translate(0 -168.516)" fill="#fff"/>
  </g>
</svg>
