<svg xmlns="http://www.w3.org/2000/svg" width="31.139" height="45.129" viewBox="0 0 31.139 45.129">
  <g id="Group_12" data-name="Group 12" transform="translate(31.138) rotate(90)">
    <path id="Path_4885" data-name="Path 4885" d="M1.717,22.027a.923.923,0,0,0-.233.274.891.891,0,0,0,.1.865A7.045,7.045,0,0,0,4.974,26.51l-.395.6a1.421,1.421,0,0,0-.306.883c.024.377.258.879,1.231,1.135,3.68.966,7.195.521,9.645-1.219A16.3,16.3,0,0,0,17.765,25.4c.267-.3.534-.6.808-.885a6.689,6.689,0,0,1,3.453-2.26l.036-.008a9.7,9.7,0,0,1,5.433.489,9.9,9.9,0,0,0-1.334.835l-.126.09h0c-2.731,1.928-5.281,3.9-6.519,6.825a.471.471,0,0,0,.449.654,7.681,7.681,0,0,0,3.352-1.18,24.2,24.2,0,0,0,4.2-2.676l.057-.048c1.052-.906,2.349-2.176,2.388-3.362a22.4,22.4,0,0,0,2.674,1.172,12.661,12.661,0,0,0,12-2.3q.176-.149.345-.306A.471.471,0,0,0,45,21.776a.457.457,0,0,0-.665-.026,11.7,11.7,0,0,1-8.419,2.968c.708-1.162-.35-3.468-.7-4.164A6.937,6.937,0,0,0,31.355,17.1a.463.463,0,0,0-.465.094.47.47,0,0,0-.147.45l.554,2.568a11.886,11.886,0,0,0,1.024,3.216h0a5.062,5.062,0,0,0,.441.656,25.1,25.1,0,0,1-2.612-1.171c-.474-.236-.951-.466-1.433-.686a23.315,23.315,0,0,1-3.8-3.509,11.035,11.035,0,0,1-2.228-4.135,2.021,2.021,0,0,0,.222.027,10.478,10.478,0,0,0,9-4.22,2.053,2.053,0,0,0,.382-2.313c-.441-.7-1.358-.882-2.582-.508a16.239,16.239,0,0,0-3.053,1.28l1.371-3.56a9,9,0,0,0,.454-1.406.978.978,0,0,0-.126-.811.966.966,0,0,0-.506-.324,4.129,4.129,0,0,0-3.567.563,8.674,8.674,0,0,0-2.6-3.221.475.475,0,0,0-.639.075,9.6,9.6,0,0,0-1.974,8.081,12.3,12.3,0,0,0-3.357-1.078c-1.9-.366-3.257-.074-4.017.871a.47.47,0,0,0,.227.745,16.855,16.855,0,0,1,5.495,2.9c.192.153.385.311.578.469a7.507,7.507,0,0,0,3.62,2l.011,0a11.592,11.592,0,0,0,2.567,5.166,19.323,19.323,0,0,0,2,2.047,10.362,10.362,0,0,0-4.174-.072c-.242-.123-.488-.236-.736-.344a6.465,6.465,0,0,0-1.439-2.926A14.206,14.206,0,0,0,6.211,12.981a.965.965,0,0,0-.716.463.958.958,0,0,0,.151.967c.05.074.1.145.155.218a4.241,4.241,0,0,0-1.663-.064,7.882,7.882,0,0,0-2.574,1.167c-.9.578-.892,1.17-.8,1.473a1.332,1.332,0,0,0,.4.59c.177.168.368.327.561.484L.408,19.3a.8.8,0,0,0-.376.9.832.832,0,0,0,.211.327,4.659,4.659,0,0,0,1.888,1.153Zm32.661-1.048c.629,1.243,1.073,2.81.727,3.278a.634.634,0,0,1-.143.143,12.136,12.136,0,0,0-2.568-5.719A6.219,6.219,0,0,1,34.378,20.979Zm.308,3.166c-.065-.092-.13-.182-.2-.273a8.967,8.967,0,0,1-.978-1.587c-.238-.548-.449-1.121-.653-1.675-.237-.642-.48-1.3-.771-1.938A11.922,11.922,0,0,1,34.686,24.145Zm-2.469-4.131-.2-.9c.223.524.423,1.057.617,1.581.206.557.418,1.133.659,1.687a9.117,9.117,0,0,0,1,1.631c.1.14.195.28.292.42a3.519,3.519,0,0,1-1.442-1.447A11.162,11.162,0,0,1,32.217,20.014ZM24.459,7.173q.08.572.113,1.169a3.263,3.263,0,0,1-.181,1.048c.019-.214.033-.428.042-.637C24.458,8.226,24.462,7.7,24.459,7.173Zm5.526,1.3c.284-.087,1.231-.335,1.51.109.237.377-.164,1.006-.348,1.26a9.523,9.523,0,0,1-8.173,3.833,1.751,1.751,0,0,1-.185-.024,9.716,9.716,0,0,1,.963-1.32l.03-.024a3.114,3.114,0,0,0,.449-.492A13.6,13.6,0,0,1,29.985,8.471ZM27.567,3.652c0,.012,0,.025-.008.04a8.256,8.256,0,0,1-.41,1.26l-1.8,4.671a.38.38,0,0,0-.006.038l-.066.048a4.25,4.25,0,0,0,.233-1.419A13.479,13.479,0,0,0,24.667,4.2,3.15,3.15,0,0,1,27.567,3.652ZM24.2,5.831c.031.963.046,1.938,0,2.913a8.3,8.3,0,0,1-.214,1.665,5.382,5.382,0,0,1-.489.823c-.065.066-.13.132-.193.2a11.522,11.522,0,0,0,.14-2.591,25.239,25.239,0,0,0-1.329-7.1A9.415,9.415,0,0,1,24.2,5.831ZM20.476,2.894a9.334,9.334,0,0,0,.016,1.327,49.254,49.254,0,0,0,.743,5.721,6.468,6.468,0,0,0-.99-.952c0-.005,0-.01,0-.016A8.613,8.613,0,0,1,20.476,2.894Zm1.193,10.314h0a6.918,6.918,0,0,1-3.076-1.782c-.2-.163-.394-.325-.591-.481A17.791,17.791,0,0,0,13.043,8.17a4.337,4.337,0,0,1,2.492-.078A10.921,10.921,0,0,1,18.89,9.216,5.3,5.3,0,0,1,21.2,11.631a8.693,8.693,0,0,1,.337.992c.054.183.11.369.172.555C21.694,13.188,21.681,13.2,21.669,13.208Zm.768-.852a9.588,9.588,0,0,0-.376-1.1,5.185,5.185,0,0,0-.5-.89,49.153,49.153,0,0,1-.834-6.16,6.272,6.272,0,0,1,.1-2.048,8.177,8.177,0,0,1,.65-1.028c.084.071.165.147.246.223a25.048,25.048,0,0,1,1.482,7.5,10.488,10.488,0,0,1-.226,2.942c-.18.212-.358.426-.519.649Zm4.141,12.072h0l.13-.093c.4-.288,1.425-1.014,1.968-.975a.457.457,0,0,0,.147.042A3.657,3.657,0,0,1,27.4,25.38l-.05.042c-1.172.986-2.4,1.932-3.661,2.81-.409.286-.864.544-1.347.819a16.127,16.127,0,0,0-1.544.958C22.056,27.751,24.247,26.074,26.579,24.428Zm.381,2.091a24.174,24.174,0,0,1-4.091,2.611c-.411.223-.849.456-1.3.65.292-.18.593-.355.892-.525.466-.265.948-.538,1.366-.83,1.263-.883,2.5-1.833,3.678-2.823l.051-.043a4.2,4.2,0,0,0,1.453-1.9C29.1,24.024,28.907,24.843,26.96,26.519ZM5.555,20.03a5.847,5.847,0,0,1,1.856-1.2c1.21-.389,2.549.109,3.932.706q.588.315,1.2.581c-.394.088-.786.19-1.172.312-.286.091-.554.189-.81.292a9.035,9.035,0,0,0-4,.66c-.334.118-.651.241-.961.361A8.525,8.525,0,0,1,2.62,22.5ZM6.61,14.143c.786.063,1.576.153,2.356.267a18.376,18.376,0,0,1,4.218,1.05,12.436,12.436,0,0,1,5.532,4.385A23.161,23.161,0,0,0,12.5,16.527c-.57-.225-1.133-.441-1.69-.655-1.437-.551-2.8-1.076-4.2-1.718Zm4.119,1.949c.556.214,1.118.429,1.689.655A22.465,22.465,0,0,1,18.654,20.1a14.286,14.286,0,0,0-4.192-.279l0,0a14.975,14.975,0,0,1-2.7-1.132l-.007-.005-.012-.005A15.117,15.117,0,0,1,6.9,14.535C8.166,15.1,9.419,15.589,10.729,16.092Zm-3.8,7.519a4.053,4.053,0,0,1-1.192.028,5.452,5.452,0,0,1-3.115-.9,8.829,8.829,0,0,0,3.063-.778c.306-.119.622-.242.953-.358a9.656,9.656,0,0,1,3.473-.687,7.506,7.506,0,0,0-1.256.718A9.051,9.051,0,0,0,6.931,23.61ZM2.581,23a5.885,5.885,0,0,0,3.139.867,5.175,5.175,0,0,0,1.013.01c-.28.392-.543.787-.793,1.166l-.423.641A5.448,5.448,0,0,1,2.581,23Zm15.308.862c-.279.3-.551.6-.824.9a15.417,15.417,0,0,1-2.46,2.37c-2.222,1.578-5.452,1.97-8.86,1.075-.394-.1-.528-.238-.531-.286a.865.865,0,0,1,.152-.3l1.361-2.059a13.239,13.239,0,0,1,2.313-2.882q.178-.152.37-.29a7.872,7.872,0,0,1,2.249-1.07,13.258,13.258,0,0,1,9.012.388A8.923,8.923,0,0,0,17.889,23.866ZM19.1,18.607a6.453,6.453,0,0,1,1.11,1.929c-.315-.107-.634-.2-.956-.287a12.661,12.661,0,0,0-5.983-5.007A18.539,18.539,0,0,0,9,14.178c-.849-.125-1.708-.214-2.563-.278l0,0A13.242,13.242,0,0,1,19.1,18.607ZM2.072,16.526a7.03,7.03,0,0,1,2.259-1.039,4.093,4.093,0,0,1,2.634.609A16.07,16.07,0,0,0,8.71,17.769a4.065,4.065,0,0,0-1.588.163A6.642,6.642,0,0,0,4.95,19.309l-.507.427a6.2,6.2,0,0,0-1.8-1.927c-.285-.228-.57-.455-.829-.7a.6.6,0,0,1-.145-.168C1.653,16.907,1.732,16.743,2.072,16.526Zm.917,4.388A3.849,3.849,0,0,1,1.032,20l1.442-1.115a3.827,3.827,0,0,1,1.217,1.477l-.667.56A.344.344,0,0,0,2.989,20.914Z" transform="translate(0 0)" fill="#f9efed"/>
  </g>
</svg>
